<mxfile host="app.diagrams.net" modified="2021-09-02T11:13:30.346Z" agent="5.0 (Windows NT 10.0; Win64; x64) AppleWebKit/537.36 (KHTML, like Gecko) Chrome/92.0.4515.159 Safari/537.36" etag="hqsibbA1XimkIc1SJ4WF" version="15.0.6" type="github">
  <diagram id="SiCVCDTsWv1Lk8dDDQxw" name="Page-1">
    <mxGraphModel dx="788" dy="544" grid="0" gridSize="10" guides="1" tooltips="1" connect="1" arrows="1" fold="1" page="1" pageScale="1" pageWidth="827" pageHeight="1169" math="0" shadow="0">
      <root>
        <mxCell id="0" />
        <mxCell id="1" parent="0" />
        <mxCell id="CvUUkflbrjSlhTg3JJsT-27" value="" style="endArrow=classic;html=1;strokeWidth=3;sketch=1;" edge="1" parent="1">
          <mxGeometry width="50" height="50" relative="1" as="geometry">
            <mxPoint x="167.9999755859375" y="796.0000244140625" as="sourcePoint" />
            <mxPoint x="167.9999755859375" y="496.0000244140625" as="targetPoint" />
          </mxGeometry>
        </mxCell>
        <mxCell id="CvUUkflbrjSlhTg3JJsT-28" value="" style="endArrow=classic;html=1;strokeWidth=3;sketch=1;" edge="1" parent="1">
          <mxGeometry width="50" height="50" relative="1" as="geometry">
            <mxPoint x="167.9999755859375" y="796.0000244140625" as="sourcePoint" />
            <mxPoint x="657.9999755859375" y="796.0000244140625" as="targetPoint" />
            <Array as="points">
              <mxPoint x="307.9999755859375" y="796.0000244140625" />
            </Array>
          </mxGeometry>
        </mxCell>
        <mxCell id="CvUUkflbrjSlhTg3JJsT-29" value="&lt;font style=&quot;font-size: 14px&quot;&gt;&lt;b&gt;1&lt;/b&gt;&lt;/font&gt;" style="text;html=1;strokeColor=none;fillColor=none;align=center;verticalAlign=middle;whiteSpace=wrap;rounded=0;" vertex="1" parent="1">
          <mxGeometry x="117.9999755859375" y="746.0000244140625" width="40" height="20" as="geometry" />
        </mxCell>
        <mxCell id="CvUUkflbrjSlhTg3JJsT-30" value="&lt;font style=&quot;font-size: 14px&quot;&gt;&lt;b&gt;2&lt;/b&gt;&lt;/font&gt;" style="text;html=1;strokeColor=none;fillColor=none;align=center;verticalAlign=middle;whiteSpace=wrap;rounded=0;" vertex="1" parent="1">
          <mxGeometry x="117.9999755859375" y="706.0000244140625" width="40" height="20" as="geometry" />
        </mxCell>
        <mxCell id="CvUUkflbrjSlhTg3JJsT-31" value="&lt;b&gt;&lt;font style=&quot;font-size: 14px&quot;&gt;3&lt;/font&gt;&lt;/b&gt;" style="text;html=1;strokeColor=none;fillColor=none;align=center;verticalAlign=middle;whiteSpace=wrap;rounded=0;" vertex="1" parent="1">
          <mxGeometry x="117.9999755859375" y="666.0000244140625" width="40" height="20" as="geometry" />
        </mxCell>
        <mxCell id="CvUUkflbrjSlhTg3JJsT-32" value="&lt;b&gt;&lt;font style=&quot;font-size: 14px&quot;&gt;4&lt;/font&gt;&lt;/b&gt;" style="text;html=1;strokeColor=none;fillColor=none;align=center;verticalAlign=middle;whiteSpace=wrap;rounded=0;" vertex="1" parent="1">
          <mxGeometry x="117.9999755859375" y="626.0000244140625" width="40" height="20" as="geometry" />
        </mxCell>
        <mxCell id="CvUUkflbrjSlhTg3JJsT-33" value="&lt;b&gt;&lt;font style=&quot;font-size: 14px&quot;&gt;5&lt;/font&gt;&lt;/b&gt;" style="text;html=1;strokeColor=none;fillColor=none;align=center;verticalAlign=middle;whiteSpace=wrap;rounded=0;" vertex="1" parent="1">
          <mxGeometry x="117.9999755859375" y="586.0000244140625" width="40" height="20" as="geometry" />
        </mxCell>
        <mxCell id="CvUUkflbrjSlhTg3JJsT-34" value="&lt;b&gt;&lt;font style=&quot;font-size: 14px&quot;&gt;6&lt;/font&gt;&lt;/b&gt;" style="text;html=1;strokeColor=none;fillColor=none;align=center;verticalAlign=middle;whiteSpace=wrap;rounded=0;sketch=1;" vertex="1" parent="1">
          <mxGeometry x="117.9999755859375" y="546.0000244140625" width="40" height="20" as="geometry" />
        </mxCell>
        <mxCell id="CvUUkflbrjSlhTg3JJsT-35" value="&lt;b&gt;&lt;font style=&quot;font-size: 14px&quot;&gt;7&lt;/font&gt;&lt;/b&gt;" style="text;html=1;strokeColor=none;fillColor=none;align=center;verticalAlign=middle;whiteSpace=wrap;rounded=0;sketch=1;" vertex="1" parent="1">
          <mxGeometry x="117.9999755859375" y="506.0000244140625" width="40" height="20" as="geometry" />
        </mxCell>
        <mxCell id="CvUUkflbrjSlhTg3JJsT-36" value="&lt;b&gt;&lt;font style=&quot;font-size: 14px&quot;&gt;第1天&lt;/font&gt;&lt;/b&gt;" style="text;html=1;strokeColor=none;fillColor=none;align=center;verticalAlign=middle;whiteSpace=wrap;rounded=0;" vertex="1" parent="1">
          <mxGeometry x="187.9999755859375" y="816.0000244140625" width="40" height="20" as="geometry" />
        </mxCell>
        <mxCell id="CvUUkflbrjSlhTg3JJsT-37" value="&lt;font style=&quot;font-size: 14px&quot;&gt;&lt;b&gt;第2天&lt;/b&gt;&lt;/font&gt;" style="text;html=1;strokeColor=none;fillColor=none;align=center;verticalAlign=middle;whiteSpace=wrap;rounded=0;" vertex="1" parent="1">
          <mxGeometry x="267.9999755859375" y="816.0000244140625" width="40" height="20" as="geometry" />
        </mxCell>
        <mxCell id="CvUUkflbrjSlhTg3JJsT-38" value="&lt;font style=&quot;font-size: 14px&quot;&gt;&lt;b&gt;第3天&lt;/b&gt;&lt;/font&gt;" style="text;html=1;strokeColor=none;fillColor=none;align=center;verticalAlign=middle;whiteSpace=wrap;rounded=0;" vertex="1" parent="1">
          <mxGeometry x="347.9999755859375" y="816.0000244140625" width="40" height="20" as="geometry" />
        </mxCell>
        <mxCell id="CvUUkflbrjSlhTg3JJsT-39" value="&lt;font style=&quot;font-size: 14px&quot;&gt;&lt;b&gt;第4天&lt;/b&gt;&lt;/font&gt;" style="text;html=1;strokeColor=none;fillColor=none;align=center;verticalAlign=middle;whiteSpace=wrap;rounded=0;" vertex="1" parent="1">
          <mxGeometry x="427.9999755859375" y="816.0000244140625" width="40" height="20" as="geometry" />
        </mxCell>
        <mxCell id="CvUUkflbrjSlhTg3JJsT-40" value="&lt;font style=&quot;font-size: 14px&quot;&gt;&lt;b&gt;第5天&lt;/b&gt;&lt;/font&gt;" style="text;html=1;strokeColor=none;fillColor=none;align=center;verticalAlign=middle;whiteSpace=wrap;rounded=0;" vertex="1" parent="1">
          <mxGeometry x="507.9999755859375" y="816.0000244140625" width="40" height="20" as="geometry" />
        </mxCell>
        <mxCell id="CvUUkflbrjSlhTg3JJsT-41" value="&lt;font style=&quot;font-size: 14px&quot;&gt;&lt;b&gt;第6天&lt;/b&gt;&lt;/font&gt;" style="text;html=1;strokeColor=none;fillColor=none;align=center;verticalAlign=middle;whiteSpace=wrap;rounded=0;" vertex="1" parent="1">
          <mxGeometry x="587.9999755859375" y="816.0000244140625" width="40" height="20" as="geometry" />
        </mxCell>
        <mxCell id="CvUUkflbrjSlhTg3JJsT-42" value="" style="endArrow=classic;html=1;strokeWidth=3;fillColor=#ffe6cc;strokeColor=#d79b00;sketch=1;" edge="1" parent="1">
          <mxGeometry width="50" height="50" relative="1" as="geometry">
            <mxPoint x="207.9999755859375" y="756.0000244140625" as="sourcePoint" />
            <mxPoint x="287.9999755859375" y="716.0000244140625" as="targetPoint" />
          </mxGeometry>
        </mxCell>
        <mxCell id="CvUUkflbrjSlhTg3JJsT-43" value="" style="endArrow=classic;html=1;fillColor=#f5f5f5;strokeColor=#666666;strokeWidth=3;sketch=1;" edge="1" parent="1">
          <mxGeometry width="50" height="50" relative="1" as="geometry">
            <mxPoint x="367.9999755859375" y="556.0000244140625" as="sourcePoint" />
            <mxPoint x="447.9999755859375" y="676.0000244140625" as="targetPoint" />
          </mxGeometry>
        </mxCell>
        <mxCell id="CvUUkflbrjSlhTg3JJsT-44" value="" style="endArrow=classic;html=1;strokeWidth=3;fillColor=#ffe6cc;strokeColor=#d79b00;sketch=1;" edge="1" parent="1">
          <mxGeometry width="50" height="50" relative="1" as="geometry">
            <mxPoint x="287.9999755859375" y="716.0000244140625" as="sourcePoint" />
            <mxPoint x="367.9999755859375" y="556.0000244140625" as="targetPoint" />
          </mxGeometry>
        </mxCell>
        <mxCell id="CvUUkflbrjSlhTg3JJsT-45" value="" style="endArrow=classic;html=1;strokeWidth=3;fillColor=#f5f5f5;strokeColor=#666666;sketch=1;" edge="1" parent="1">
          <mxGeometry width="50" height="50" relative="1" as="geometry">
            <mxPoint x="447.9999755859375" y="676.0000244140625" as="sourcePoint" />
            <mxPoint x="527.9999755859375" y="716.0000244140625" as="targetPoint" />
          </mxGeometry>
        </mxCell>
        <mxCell id="CvUUkflbrjSlhTg3JJsT-46" value="&lt;b&gt;&lt;font style=&quot;font-size: 14px&quot;&gt;买入&lt;/font&gt;&lt;/b&gt;" style="text;html=1;strokeColor=none;fillColor=none;align=center;verticalAlign=middle;whiteSpace=wrap;rounded=0;" vertex="1" parent="1">
          <mxGeometry x="187.9999755859375" y="766.0000244140625" width="40" height="20" as="geometry" />
        </mxCell>
        <mxCell id="CvUUkflbrjSlhTg3JJsT-47" value="&lt;b&gt;&lt;font style=&quot;font-size: 14px&quot;&gt;卖出&lt;/font&gt;&lt;/b&gt;" style="text;html=1;strokeColor=none;fillColor=none;align=center;verticalAlign=middle;whiteSpace=wrap;rounded=0;" vertex="1" parent="1">
          <mxGeometry x="597.9999755859375" y="576.0000244140625" width="40" height="20" as="geometry" />
        </mxCell>
        <mxCell id="CvUUkflbrjSlhTg3JJsT-48" value="&lt;b&gt;&lt;font style=&quot;font-size: 14px&quot;&gt;卖出再买入&lt;/font&gt;&lt;/b&gt;" style="text;html=1;strokeColor=none;fillColor=none;align=center;verticalAlign=middle;whiteSpace=wrap;rounded=0;" vertex="1" parent="1">
          <mxGeometry x="207.9999755859375" y="696.0000244140625" width="80" height="10" as="geometry" />
        </mxCell>
        <mxCell id="CvUUkflbrjSlhTg3JJsT-49" value="&lt;b&gt;&lt;font style=&quot;font-size: 14px&quot;&gt;卖出&lt;/font&gt;&lt;/b&gt;" style="text;html=1;strokeColor=none;fillColor=none;align=center;verticalAlign=middle;whiteSpace=wrap;rounded=0;" vertex="1" parent="1">
          <mxGeometry x="347.9999755859375" y="526.0000244140625" width="40" height="20" as="geometry" />
        </mxCell>
        <mxCell id="CvUUkflbrjSlhTg3JJsT-50" value="&lt;b&gt;&lt;font style=&quot;font-size: 14px&quot;&gt;股价&lt;/font&gt;&lt;/b&gt;" style="text;html=1;strokeColor=none;fillColor=none;align=center;verticalAlign=middle;whiteSpace=wrap;rounded=0;sketch=1;" vertex="1" parent="1">
          <mxGeometry x="147.9999755859375" y="476.0000244140625" width="40" height="20" as="geometry" />
        </mxCell>
        <mxCell id="CvUUkflbrjSlhTg3JJsT-51" value="&lt;b&gt;&lt;font style=&quot;font-size: 14px&quot;&gt;时间&lt;/font&gt;&lt;/b&gt;" style="text;html=1;strokeColor=none;fillColor=none;align=center;verticalAlign=middle;whiteSpace=wrap;rounded=0;sketch=1;" vertex="1" parent="1">
          <mxGeometry x="657.9999755859375" y="786.0000244140625" width="40" height="20" as="geometry" />
        </mxCell>
        <mxCell id="CvUUkflbrjSlhTg3JJsT-52" value="" style="endArrow=classic;html=1;strokeWidth=3;fillColor=#ffe6cc;strokeColor=#d79b00;sketch=1;" edge="1" parent="1">
          <mxGeometry width="50" height="50" relative="1" as="geometry">
            <mxPoint x="527.9999755859375" y="716.0000244140625" as="sourcePoint" />
            <mxPoint x="607.9999755859375" y="596.0000244140625" as="targetPoint" />
          </mxGeometry>
        </mxCell>
        <mxCell id="CvUUkflbrjSlhTg3JJsT-53" value="&lt;b&gt;&lt;font style=&quot;font-size: 14px&quot;&gt;不买入&lt;/font&gt;&lt;/b&gt;" style="text;html=1;strokeColor=none;fillColor=none;align=center;verticalAlign=middle;whiteSpace=wrap;rounded=0;" vertex="1" parent="1">
          <mxGeometry x="387.9999755859375" y="696.0000244140625" width="80" height="10" as="geometry" />
        </mxCell>
        <mxCell id="CvUUkflbrjSlhTg3JJsT-54" value="&lt;b&gt;&lt;font style=&quot;font-size: 14px&quot;&gt;买入&lt;/font&gt;&lt;/b&gt;" style="text;html=1;strokeColor=none;fillColor=none;align=center;verticalAlign=middle;whiteSpace=wrap;rounded=0;" vertex="1" parent="1">
          <mxGeometry x="507.9999755859375" y="726.0000244140625" width="40" height="20" as="geometry" />
        </mxCell>
      </root>
    </mxGraphModel>
  </diagram>
</mxfile>
